HIERARCHY
ROOT hip
{
	OFFSET 0.000000 0.000000 0.000000 
	CHANNELS 6 Xposition Yposition Zposition Xrotation Zrotation Yrotation
	JOINT abdomen
	{
		OFFSET 0.000000 3.402643 0.000000 
		CHANNELS 3 Xrotation Zrotation Yrotation
		JOINT chest
		{
			OFFSET 0.000000 8.438565 -0.680529 
			CHANNELS 3 Xrotation Zrotation Yrotation
			JOINT neck
			{
				OFFSET 0.000000 10.207942 -0.272212 
				CHANNELS 3 Xrotation Zrotation Yrotation
				JOINT head
				{
					OFFSET 0.000000 3.130431 0.000000 
					CHANNELS 3 Xrotation Zrotation Yrotation
					End Site
					{
						OFFSET 0.000000 3.130435 0.000000 
					}
				}
			}
			JOINT lCollar
			{
				OFFSET 3.470700 6.669187 -0.816635 
				CHANNELS 3 Yrotation Zrotation Xrotation
				JOINT lShldr
				{
					OFFSET 3.198488 0.000000 0.000000 
					CHANNELS 3 Zrotation Yrotation Xrotation
					JOINT lForeArm
					{
						OFFSET 10.139888 0.000000 0.000000 
						CHANNELS 3 Yrotation Zrotation Xrotation
						JOINT lHand
						{
							OFFSET 8.370511 0.000000 0.000000 
							CHANNELS 3 Zrotation Yrotation Xrotation
							End Site
							{
								OFFSET 4.083176 0.000000 0.000000 
							}
						}
					}
				}
			}
			JOINT rCollar
			{
				OFFSET -3.470700 6.669187 -0.816635 
				CHANNELS 3 Yrotation Zrotation Xrotation
				JOINT rShldr
				{
					OFFSET -3.198488 0.000000 0.000000 
					CHANNELS 3 Zrotation Yrotation Xrotation
					JOINT rForeArm
					{
						OFFSET -10.139888 0.000000 0.000000 
						CHANNELS 3 Yrotation Zrotation Xrotation
						JOINT rHand
						{
							OFFSET -8.370511 0.000000 0.000000 
							CHANNELS 3 Zrotation Yrotation Xrotation
							End Site
							{
								OFFSET -4.083176 0.000000 0.000000 
							}
						}
					}
				}
			}
		}
	}
	JOINT lThigh
	{
		OFFSET 5.308129 -1.633274 1.361059 
		CHANNELS 3 Xrotation Zrotation Yrotation
		JOINT lShin
		{
			OFFSET -2.041588 -20.007561 0.000000 
			CHANNELS 3 Xrotation Zrotation Yrotation
			JOINT lFoot
			{
				OFFSET 0.000000 -19.190928 -1.224953 
				CHANNELS 3 Xrotation Yrotation Zrotation
				End Site
				{
					OFFSET 0.000000 -2.449906 4.627600 
				}
			}
		}
	}
	JOINT rThigh
	{
		OFFSET -5.308129 -1.633274 1.361059 
		CHANNELS 3 Xrotation Zrotation Yrotation
		JOINT rShin
		{
			OFFSET 2.041588 -20.007561 0.000000 
			CHANNELS 3 Xrotation Zrotation Yrotation
			JOINT rFoot
			{
				OFFSET 0.000000 -19.190928 -1.224953 
				CHANNELS 3 Xrotation Yrotation Zrotation
				End Site
				{
					OFFSET 0.000000 -2.449906 4.627600 
				}
			}
		}
	}
}
MOTION
Frames: 16
Frame Time: 0.011111
2.653688 44.899113 35.088463 158.462509 168.708923 3.153046 14.684977 21.238497 10.535586 -22.790920 -6.351268 0.650615 -31.744957 -2.585642 1.356002 33.507381 -1.413544 -0.400599 -5.788594 -15.737329 -1.465587 -18.805313 -12.463683 7.123450 -52.729759 8.273008 9.269475 8.524705 12.647240 -31.253307 7.611086 14.174596 -1.900835 23.814278 16.290041 -5.679769 43.812939 -6.032797 5.769850 -8.534408 -12.637552 35.941265 -66.069443 18.202591 -11.204871 90.717758 1.307413 -9.743309 -37.911812 12.845959 7.937690 -43.574715 13.542179 -4.332177 66.165718 2.006286 8.629180 -52.067669 -5.369379 -9.835120 
2.597036 44.892071 34.702141 158.786728 169.453903 1.779293 16.520020 20.148502 11.793629 -23.328596 -5.995196 1.034352 -32.148155 -2.675121 1.476617 33.454880 -1.860456 -0.378258 -5.788594 -15.737329 -1.465587 -22.064404 -10.885056 5.275552 -52.455940 8.216378 9.146390 8.524705 12.647240 -28.743540 7.611086 14.174596 -1.900835 24.416552 18.028370 0.325657 46.022293 -6.686121 6.597078 -8.534408 -12.637552 39.583847 -67.246330 16.922829 -10.507496 91.145142 1.375293 -9.745528 -38.336296 12.544905 7.962509 -41.991123 12.626749 -4.891253 65.892281 2.035779 8.617060 -51.178654 -4.689012 -8.661508 
2.621680 44.953205 34.224277 159.232605 170.119797 0.145040 18.136856 18.792465 13.078907 -23.735878 -5.348378 1.432431 -32.646011 -2.965934 1.735879 33.925934 -1.982929 -0.184939 -5.788594 -15.737329 -1.465587 -25.327930 -9.658347 2.906376 -51.795303 8.087740 8.876102 8.524705 12.647240 -28.733776 7.611086 14.174596 -1.900835 24.982849 19.628777 6.186923 48.747017 -7.411446 7.662582 -8.534408 -12.637552 43.265480 -68.084976 16.297478 -9.610944 91.057709 1.362787 -9.743968 -39.492069 11.501421 7.908739 -40.081417 12.702925 -4.203142 65.307243 2.123667 8.568661 -50.973522 -4.326899 -8.211738 
2.588074 45.016258 33.745453 159.369003 170.336121 -1.199195 19.160789 18.179462 14.098602 -23.890018 -5.007520 1.700652 -33.070965 -3.105363 1.921427 34.222603 -2.212255 -0.035010 -5.788594 -15.737329 -1.465587 -28.553871 -8.565784 -0.425259 -50.977962 7.915342 8.541825 8.524705 12.647240 -30.550182 7.611086 14.174596 -1.900835 25.558697 21.368021 11.459164 51.733883 -8.083430 8.864042 -8.534408 -12.637552 46.781109 -69.695297 15.517276 -9.270810 90.804863 1.317007 -9.757331 -41.074009 10.854561 8.257773 -38.537891 13.289160 -3.167009 64.546074 2.202714 8.509979 -51.171604 -4.180454 -8.166700 
2.535582 45.040581 33.278156 159.199646 170.184509 -2.233753 19.769169 18.400291 13.959054 -23.828148 -4.961336 2.661931 -33.530201 -2.850029 1.958522 34.179443 -2.620721 0.083996 -5.788594 -15.737329 -1.465587 -31.400637 -7.644244 -3.922944 -50.068966 7.716493 8.181411 8.524705 12.647240 -32.571671 7.611086 14.174596 -1.900835 26.331366 23.513130 16.324183 54.701969 -8.628025 10.099385 -8.534408 -12.637552 50.384624 -72.057259 14.589502 -9.446107 90.435669 1.258776 -9.757505 -42.724319 10.682205 8.970680 -37.357311 14.333932 -1.837356 63.677490 2.310209 8.439607 -51.544308 -4.329788 -8.513126 
2.469008 45.086990 32.773407 158.747162 169.580994 -3.040357 20.054419 18.985493 14.525519 -24.751024 -5.279846 2.848165 -33.596954 -2.291939 1.969737 34.810585 -3.120446 0.316255 -5.788594 -15.737329 -1.465587 -33.823566 -5.563842 -5.861172 -49.453281 7.572289 7.936553 8.524705 12.647240 -33.138073 7.611086 14.174596 -1.900835 27.408064 24.770622 21.581369 57.817360 -9.064481 11.446140 -8.534408 -12.637552 54.134621 -74.819046 13.739824 -10.146038 89.881485 1.190893 -9.747416 -44.496796 10.014760 9.434143 -36.280670 15.542985 -0.905412 62.613110 2.426509 8.357423 -51.806759 -4.595374 -8.922495 
2.374907 45.188774 32.214886 157.954285 169.000305 -3.839635 19.769529 19.715654 15.128070 -25.284842 -5.815658 3.050964 -33.854034 -1.816059 2.012039 35.565716 -3.463050 0.582976 -5.788594 -15.737329 -1.465587 -36.018997 -3.516000 -6.670562 -49.358952 7.545504 7.888949 8.524705 12.647240 -31.556038 7.611086 14.174596 -1.900835 28.523703 25.995152 26.379093 60.871758 -9.342026 12.801526 -8.534408 -12.637552 57.923691 -77.639648 12.831944 -10.910213 88.978127 1.063354 -9.725812 -46.192028 9.034897 9.617263 -35.396351 16.453066 -0.242026 61.343201 2.573287 8.255003 -51.848404 -4.636920 -8.996167 
2.285288 45.310722 31.623404 156.807190 168.894867 -5.086404 18.664883 20.061060 15.752916 -25.681360 -6.284697 3.347235 -33.273872 -1.793076 2.143715 35.741562 -3.571681 0.775324 -5.788594 -15.737329 -1.465587 -38.186794 -1.101082 -6.945096 -49.661743 7.620359 8.014544 8.524705 12.647240 -28.567757 7.611086 14.174596 -1.900835 29.603102 26.534649 31.022696 64.207214 -9.460904 14.321174 -8.534408 -12.637552 61.722515 -80.451149 12.119325 -11.253381 87.637817 0.848208 -9.711198 -47.579468 8.740617 10.145110 -34.773540 17.138456 0.961649 59.876804 2.750650 8.141004 -51.670113 -4.700884 -8.955660 
2.229597 45.570618 30.990948 155.488144 169.448868 -6.623234 17.506268 19.256603 16.644678 -25.800276 -6.554183 3.748711 -34.059006 -1.843040 2.091770 36.681156 -3.502226 0.558120 -5.788594 -15.737329 -1.465587 -39.973579 0.297616 -7.436468 -49.765987 7.644079 8.054372 8.524705 12.647240 -26.009167 7.611086 14.174596 -1.900835 30.758398 27.014414 34.345951 67.504341 -9.379116 15.883728 -8.534408 -12.637552 64.994003 -82.675545 11.601490 -11.012030 85.597725 0.577033 -9.632827 -48.522724 8.822872 10.726789 -34.195976 17.381014 2.783602 58.038555 2.954698 7.968280 -51.310589 -4.849037 -8.894245 
2.183507 46.044636 30.314644 154.570450 170.583801 -7.659394 16.426092 17.926596 17.059397 -25.830633 -6.754540 4.024500 -34.586643 -2.167305 2.234252 37.152317 -3.107614 0.678282 -5.788594 -15.737329 -1.465587 -41.673134 1.473318 -7.997719 -49.952991 7.682721 8.124782 8.524705 12.647240 -23.997450 7.611086 14.174596 -1.900835 31.878088 27.465284 37.161633 70.573593 -9.092380 17.374809 -8.534408 -12.637552 67.757668 -83.515144 10.830085 -10.306842 82.701866 0.173745 -9.542590 -48.406891 8.986535 10.795860 -33.060551 16.597439 4.574618 55.727932 3.208706 7.766465 -50.817005 -4.770602 -8.543688 
2.148619 46.555149 29.637377 -25.920794 8.019051 171.787598 15.625941 16.213951 17.187582 -25.940760 -6.990110 4.215634 -34.773144 -2.741674 2.432745 37.179298 -2.308455 0.911296 -5.788594 -15.737329 -1.465587 -43.069386 2.825510 -7.691279 -50.632534 7.838937 8.400806 8.524705 12.647240 -21.634167 7.611086 14.174596 -1.900835 33.030140 27.765026 39.453873 73.567429 -8.591827 18.895786 -8.534408 -12.637552 70.130714 -83.673508 9.814402 -9.489717 79.552261 -0.252165 -9.417206 -47.161076 9.368196 10.368609 -31.561413 15.155553 6.017702 53.179977 3.472490 7.521256 -50.316341 -4.441648 -7.924633 
2.123334 47.099262 28.915300 -25.692102 5.946198 170.314972 15.618461 13.307445 17.894403 -26.213802 -7.042778 4.593341 -33.670811 -3.314536 2.548564 35.677658 -1.369839 1.185293 -5.788594 -15.737329 -1.465587 -44.239491 4.349977 -7.170971 -51.522785 8.031788 8.763413 8.524705 12.647240 -19.300184 7.611086 14.174596 -1.900835 34.219109 27.806196 41.340508 76.496651 -7.841415 20.455498 -8.534408 -12.637552 72.494003 -82.426804 9.638478 -7.950382 76.158195 -0.720960 -9.267173 -45.786800 10.099287 10.160910 -29.213526 13.414314 8.535760 50.363857 3.746442 7.238371 -49.507107 -4.416019 -7.505326 
2.117253 47.504471 28.217236 -27.012295 4.738441 169.950577 13.376483 11.920282 17.790251 -25.813196 -7.302481 4.769334 -34.172665 -3.509362 2.331052 36.143471 -0.665386 0.818635 -5.788594 -15.737329 -1.465587 -45.028751 5.727184 -6.571441 -52.288910 8.188586 9.082129 8.524705 12.647240 -17.278700 7.611086 14.174596 -1.900835 35.470058 27.797104 42.842186 79.172852 -6.862846 21.973162 -8.534408 -12.637552 74.876816 -83.859116 8.877015 -7.590438 73.025085 -1.162382 -9.102391 -42.875221 12.372823 10.155065 -28.723131 12.015892 9.380727 47.641514 4.020035 6.932703 -48.670635 -4.888814 -7.486680 
2.098369 47.964085 27.410021 -26.990593 3.122935 168.255630 12.642274 9.607287 18.838261 -25.785091 -7.667567 5.253376 -33.519188 -3.242392 1.701522 35.405769 -0.479004 -0.070970 -5.788594 -15.737329 -1.465587 -45.263435 7.520875 -4.915497 -53.413750 8.400452 9.553508 8.524705 12.647240 -14.817760 7.611086 14.174596 -1.900835 36.869690 27.471184 44.211086 81.428596 -5.741723 23.413157 -8.534408 -12.637552 77.259621 -83.107430 9.296762 -6.555929 70.123199 -1.520669 -8.909097 -40.679710 12.799803 9.256929 -26.610378 10.546669 11.217916 44.934494 4.247784 6.657874 -47.616871 -5.060227 -7.115142 
2.122374 48.379856 26.624254 -27.391703 1.760026 167.060410 11.436477 7.531513 19.567657 -26.661209 -7.983509 5.780220 -32.467625 -3.349907 1.420517 35.147690 0.632827 -0.299187 -5.788594 -15.737329 -1.465587 -44.906425 10.165359 -2.255792 -55.049603 8.679312 10.242054 8.524705 12.647240 -12.141981 7.611086 14.174596 -1.900835 38.542694 26.193010 45.633759 83.278557 -4.512096 24.788002 -8.534408 -12.637552 79.525253 -83.105347 9.560290 -5.860567 67.598923 -1.824469 -8.738151 -38.961037 11.811941 7.821592 -25.243238 9.130697 12.311417 42.498344 4.463158 6.383708 -46.435963 -4.983540 -6.505213 
2.193749 48.712727 25.853529 -28.271456 0.493320 166.524231 9.399989 5.594817 19.854748 -27.860500 -8.181807 6.292453 -31.934177 -3.446562 1.065820 36.436680 1.938045 -0.744256 -5.788594 -15.737329 -1.465587 -43.929935 13.151908 0.804896 -56.710865 8.917094 10.952097 8.524705 12.647240 -10.140027 7.611086 14.174596 -1.900835 40.286633 24.082067 47.090115 84.631927 -3.315502 26.094086 -8.534408 -12.637552 81.263527 -83.972031 9.521158 -5.353975 65.541100 -2.086344 -8.592600 -36.964088 11.320084 6.660010 -24.587627 7.859751 13.019461 40.305347 4.645619 6.122591 -45.232540 -5.252486 -6.153883 
